<svg width="631" height="631" viewBox="0 0 631 631" fill="none" xmlns="http://www.w3.org/2000/svg">
<circle cx="315.5" cy="315.5" r="315.5" fill="white"/>
<path d="M145.007 133.589C142.965 129.934 141.353 126.602 141.353 126.279C141.353 125.957 183.813 125.957 235.733 126.064L330.006 126.494L342.691 129.934C349.678 131.869 357.095 134.234 359.352 135.094C369.994 139.608 385.796 148.316 395.041 154.658C408.692 164.01 428.794 184.326 438.899 198.946L446.746 210.233L315.817 210.555C243.903 210.663 184.673 210.448 184.243 210.018C183.921 209.48 175.643 193.678 166.076 174.759C156.402 155.84 146.942 137.351 145.007 133.589Z" fill="black"/>
<path d="M141.03 506.841C140.171 507.916 157.37 508.13 233.905 507.808C337.315 507.485 331.403 507.808 353.224 500.498C389.343 488.566 418.259 465.778 441.801 430.734C456.42 409.02 469.642 374.837 473.511 349.038C474.156 344.631 474.909 339.9 475.231 338.503L475.662 336.139H524.894L536.933 312.167C543.598 299.053 550.478 285.615 552.305 282.391C554.025 279.166 556.068 275.296 556.82 273.791C557.573 272.286 560.367 266.589 563.054 261.107L568 251.218H300.338L307.431 264.869C311.301 272.501 315.279 280.348 316.354 282.391C317.429 284.433 323.879 297.225 330.759 310.877L343.227 335.601L371.499 336.139L399.878 336.676L399.447 339.363C398.91 343.663 393.966 358.712 390.956 365.162C384.184 380.104 368.274 399.023 355.267 407.623C344.195 414.825 337.208 417.942 325.921 420.737C316.569 422.887 312.591 423.209 293.35 423.209C272.926 423.209 271.421 423.102 271.421 421.274C271.421 420.199 271.851 418.91 272.388 418.372C274.431 416.007 305.814 353.349 305.819 351.511C305.819 350.328 305.39 349.037 304.852 348.5C304.421 347.853 295.176 330.01 284.32 308.728C273.571 287.444 264.434 269.706 264.004 269.276C263.358 268.525 260.668 273.584 227.671 338.288C217.889 357.53 205.849 380.964 201.011 390.424C196.174 399.884 185.533 420.63 177.363 436.646C147.587 495.016 142.212 505.443 141.03 506.841Z" fill="url(#paint0_linear_561_78)"/>
<defs>
<linearGradient id="paint0_linear_561_78" x1="141" y1="508.013" x2="568.292" y2="250.831" gradientUnits="userSpaceOnUse">
<stop/>
<stop offset="0.389423" stop-color="#0E0D27"/>
<stop offset="1" stop-color="#403EB6"/>
</linearGradient>
</defs>
</svg>
